<svg xmlns="http://www.w3.org/2000/svg" xmlns:xlink="http://www.w3.org/1999/xlink" class="icon" viewBox="0 0 1024 1024" width="200" height="200"><defs><style type="text/css"></style></defs><path d="M742.4 101.12A249.6 249.6 0 0 0 512 256a249.6 249.6 0 0 0-230.72-154.88c-137.6 0-249.28 137.6-249.28 275.2 0 301.44 416 546.56 480 546.56s480-245.12 480-546.56c0-137.6-111.68-275.2-249.6-275.2z m16.64 301.12l-192 305.28-2.56 4.16a77.76 77.76 0 0 1-106.88 24.64 79.04 79.04 0 0 1-21.12-19.2l-121.28-164.16a58.24 58.24 0 0 1 81.6-81.6l90.24 67.84 179.84-205.76a57.92 57.92 0 0 1 92.48 68.48z" fill="#1296db"></path></svg>