<svg width="128" height="128" xmlns="http://www.w3.org/2000/svg">

 <g>
  <title>background</title>
  <rect fill="none" id="canvas_background" height="402" width="582" y="-1" x="-1"/>
 </g>
 <g>
  <title>Layer 1</title>
  <path id="svg_5" fill="#bf00bf" d="m57,89l-4,0l0,-30.477c0,-1.794 1.207,-3.38 2.936,-3.856l21.023,-5.528c1.192,-0.326 2.464,-0.082 3.465,0.68c1.002,0.763 1.576,1.922 1.576,3.182l0,30.374l-4,0l0,-30.374l-21.023,5.528l0.023,30.471z"/>
  <ellipse id="svg_7" fill="#bf00bf" ry="5" rx="7.5" cy="89" cx="47.5"/>
  <path id="svg_8" fill="#bf00bf" d="m47.5,96c-5.327,0 -9.5,-3.075 -9.5,-7s4.173,-7 9.5,-7s9.5,3.075 9.5,7s-4.173,7 -9.5,7zm0,-10c-3.147,0 -5.5,1.584 -5.5,3s2.353,3 5.5,3s5.5,-1.584 5.5,-3s-2.353,-3 -5.5,-3z"/>
  <ellipse id="svg_10" fill="#bf00bf" ry="5.375" rx="7.5" cy="83.375" cx="72.5"/>
  <path id="svg_11" fill="#bf00bf" d="m72.5,90.749c-5.327,0 -9.5,-3.239 -9.5,-7.374c0,-4.136 4.173,-7.375 9.5,-7.375s9.5,3.239 9.5,7.375c0,4.135 -4.173,7.374 -9.5,7.374zm0,-10.749c-2.93,0 -5.5,1.577 -5.5,3.375c0,1.596 2.259,3.374 5.5,3.374s5.5,-1.778 5.5,-3.374c0,-1.798 -2.57,-3.375 -5.5,-3.375z"/>
  <path id="svg_14" fill="#bf00bf" d="m104,80c-13.255,0 -24,10.745 -24,24s10.745,24 24,24s24,-10.745 24,-24s-10.745,-24 -24,-24zm10.882,16.988l-0.113,0.176l-8.232,11.438c-0.548,0.866 -1.508,1.398 -2.537,1.398s-1.989,-0.532 -2.536,-1.397l-8.346,-11.614c-0.529,-0.926 -0.524,-2.073 0.01,-2.994c0.535,-0.922 1.53,-1.494 2.596,-1.494l4.276,0l0,-6.501c0,-1.654 1.346,-3 3,-3l2,0c1.654,0 3,1.346 3,3l0,6.5l4.276,0c1.065,0 2.061,0.572 2.596,1.494c0.534,0.921 0.539,2.069 0.01,2.994z"/>
  <polygon id="svg_17" fill="#FF9A30" points="84,125.95 83.95,126 84,126      "/>
  <polygon id="svg_19" fill="#FF9A30" points="114,77 114,76.95 113.95,77      "/>
  <path id="svg_21" fill="#bf00bf" d="m111.071,44.243l-39.314,-39.314c-1.888,-1.888 -4.4,-2.929 -7.07,-2.929l-40.687,0c-5.514,0 -10,4.486 -10,10l0,104c0,5.514 4.486,10 10,10l59.95,0l-4,-4l-55.95,0c-3.309,0 -6,-2.691 -6,-6l0,-104c0,-3.309 2.691,-6 6,-6l40.687,0c1.603,0 3.109,0.624 4.242,1.757l39.314,39.314c1.116,1.117 1.757,2.663 1.757,4.242l0,21.637l4,4l0,-25.637c0,-2.67 -1.04,-5.181 -2.929,-7.07z"/>
  <polyline id="svg_23" fill="#FFFFFF" points="113.95,77 114,76.95 110,72.95      "/>
 </g>
</svg>