<svg width="128" height="128" xmlns="http://www.w3.org/2000/svg">

 <g>
  <title>background</title>
  <rect fill="none" id="canvas_background" height="402" width="582" y="-1" x="-1"/>
 </g>
 <g>
  <title>Layer 1</title>
  <path id="svg_4" fill="#bf005f" d="m45.233,91.533c-0.741,0 -1.479,-0.208 -2.131,-0.619c-1.169,-0.737 -1.866,-2.002 -1.866,-3.384l0,-37.527c0,-1.411 0.721,-2.69 1.928,-3.422c1.207,-0.729 2.674,-0.776 3.926,-0.123l37.527,19.617c1.351,0.705 2.173,2.091 2.146,3.615c-0.027,1.526 -0.899,2.882 -2.276,3.539l-37.528,17.911c-0.551,0.262 -1.139,0.393 -1.726,0.393zm0.003,-41.53l0,37.527l37.527,-17.91l-37.527,-19.617z"/>
  <path id="svg_7" fill="#bf005f" d="m104,80c-13.255,0 -24,10.745 -24,24s10.745,24 24,24s24,-10.745 24,-24s-10.745,-24 -24,-24zm10.882,16.988l-0.113,0.176l-8.232,11.438c-0.548,0.866 -1.508,1.398 -2.537,1.398s-1.989,-0.532 -2.536,-1.397l-8.346,-11.614c-0.529,-0.926 -0.524,-2.073 0.01,-2.994c0.535,-0.922 1.53,-1.494 2.596,-1.494l4.276,0l0,-6.501c0,-1.654 1.346,-3 3,-3l2,0c1.654,0 3,1.346 3,3l0,6.5l4.276,0c1.065,0 2.061,0.572 2.596,1.494c0.534,0.921 0.539,2.069 0.01,2.994z"/>
  <polygon id="svg_10" fill="#FF9A30" points="84,125.95 83.95,126 84,126      "/>
  <polygon id="svg_12" fill="#FF9A30" points="114,77 114,76.95 113.95,77      "/>
  <path id="svg_14" fill="#bf005f" d="m111.071,44.243l-39.314,-39.314c-1.888,-1.888 -4.4,-2.929 -7.07,-2.929l-40.687,0c-5.514,0 -10,4.486 -10,10l0,104c0,5.514 4.486,10 10,10l59.95,0l-4,-4l-55.95,0c-3.309,0 -6,-2.691 -6,-6l0,-104c0,-3.309 2.691,-6 6,-6l40.687,0c1.603,0 3.109,0.624 4.242,1.757l39.314,39.314c1.116,1.117 1.757,2.663 1.757,4.242l0,21.637l4,4l0,-25.637c0,-2.67 -1.04,-5.181 -2.929,-7.07z"/>
  <polyline id="svg_16" fill="#FFFFFF" points="113.95,77 114,76.95 110,72.95      "/>
 </g>
</svg>