<svg width="128" height="128" xmlns="http://www.w3.org/2000/svg">

 <g>
  <title>background</title>
  <rect fill="none" id="canvas_background" height="402" width="582" y="-1" x="-1"/>
 </g>
 <g>
  <title>Layer 1</title>
  <rect id="svg_3" fill="#e2e226" y="112" x="47" width="10" height="6"/>
  <rect id="svg_4" fill="#e2e226" y="118" x="37" width="10" height="6"/>
  <rect id="svg_5" fill="#e2e226" y="100" x="47" width="10" height="6"/>
  <rect id="svg_6" fill="#e2e226" y="106" x="37" width="10" height="6"/>
  <rect id="svg_7" fill="#e2e226" y="88" x="47" width="10" height="6"/>
  <rect id="svg_8" fill="#e2e226" y="94" x="37" width="10" height="6"/>
  <rect id="svg_9" fill="#e2e226" y="76" x="47" width="10" height="6"/>
  <rect id="svg_10" fill="#e2e226" y="82" x="37" width="10" height="6"/>
  <rect id="svg_11" fill="#e2e226" y="64" x="47" width="10" height="6"/>
  <rect id="svg_12" fill="#e2e226" y="70" x="37" width="10" height="6"/>
  <path id="svg_13" fill="#e2e226" d="m56,29l-16,0c-1.1,0 -2,0.9 -2,2l0,25c0,1.1 0.9,2 2,2l16,0c1.1,0 2,-0.9 2,-2l0,-25c0,-1.1 -0.9,-2 -2,-2zm-3,16l-10,0l0,-11l10,0l0,11z"/>
  <path id="svg_15" fill="#e2e226" d="m104,80c-13.255,0 -24,10.745 -24,24s10.745,24 24,24s24,-10.745 24,-24s-10.745,-24 -24,-24zm10.882,16.988l-0.113,0.176l-8.232,11.438c-0.548,0.866 -1.508,1.398 -2.537,1.398s-1.989,-0.532 -2.536,-1.397l-8.346,-11.614c-0.529,-0.926 -0.524,-2.073 0.01,-2.994c0.535,-0.922 1.53,-1.494 2.596,-1.494l4.276,0l0,-6.501c0,-1.654 1.346,-3 3,-3l2,0c1.654,0 3,1.346 3,3l0,6.5l4.276,0c1.065,0 2.061,0.572 2.596,1.494c0.534,0.921 0.539,2.069 0.01,2.994z"/>
  <polygon id="svg_17" fill="#FF9A30" points="84,125.95 83.95,126 84,126    "/>
  <polygon id="svg_18" fill="#FF9A30" points="114,77 114,76.95 113.95,77    "/>
  <path id="svg_19" fill="#e2e226" d="m111.071,44.243l-39.314,-39.314c-1.888,-1.888 -4.4,-2.929 -7.07,-2.929l-40.687,0c-5.514,0 -10,4.486 -10,10l0,104c0,5.514 4.486,10 10,10l59.95,0l-4,-4l-55.95,0c-3.309,0 -6,-2.691 -6,-6l0,-104c0,-3.309 2.691,-6 6,-6l40.687,0c1.603,0 3.109,0.624 4.242,1.757l39.314,39.314c1.116,1.117 1.757,2.663 1.757,4.242l0,21.637l4,4l0,-25.637c0,-2.67 -1.04,-5.181 -2.929,-7.07z"/>
  <polyline id="svg_20" fill="#FFFFFF" points="113.95,77 114,76.95 110,72.95    "/>
 </g>
</svg>